<svg width="502" height="502" xmlns="http://www.w3.org/2000/svg" xmlns:xlink="http://www.w3.org/1999/xlink" overflow="hidden"><defs><filter id="fx0" x="-10%" y="-10%" width="120%" height="120%" filterUnits="userSpaceOnUse" primitiveUnits="userSpaceOnUse"><feComponentTransfer color-interpolation-filters="sRGB"><feFuncR type="discrete" tableValues="0 0"/><feFuncG type="discrete" tableValues="0 0"/><feFuncB type="discrete" tableValues="0 0"/><feFuncA type="linear" slope="0.388235" intercept="0"/></feComponentTransfer><feGaussianBlur stdDeviation="5.77778 5.77778"/></filter><linearGradient x1="910.886" y1="587.301" x2="369.114" y2="132.699" gradientUnits="userSpaceOnUse" spreadMethod="reflect" id="fill1"><stop offset="0" stop-color="#192947"/><stop offset="0.24" stop-color="#192947"/><stop offset="0.68" stop-color="#3A1A23"/><stop offset="1" stop-color="#3A1A23"/></linearGradient><linearGradient x1="607.215" y1="193.215" x2="672.785" y2="306.785" gradientUnits="userSpaceOnUse" spreadMethod="reflect" id="fill2"><stop offset="0" stop-color="#D882FA"/><stop offset="0.14" stop-color="#D882FA"/><stop offset="0.78" stop-color="#529DF8"/><stop offset="1" stop-color="#529DF8"/></linearGradient><linearGradient x1="9.43642" y1="-5.44812" x2="120.713" y2="187.288" gradientUnits="userSpaceOnUse" spreadMethod="reflect" id="fill3"><stop offset="0" stop-color="#FD9DFF"/><stop offset="0.9" stop-color="#A357D7"/><stop offset="1" stop-color="#A357D7"/></linearGradient><linearGradient x1="9.43642" y1="-5.44812" x2="120.713" y2="187.288" gradientUnits="userSpaceOnUse" spreadMethod="reflect" id="fill4"><stop offset="0" stop-color="#84CEFC"/><stop offset="0.9" stop-color="#125BEC"/><stop offset="1" stop-color="#125BEC"/></linearGradient><linearGradient x1="582.529" y1="301.457" x2="697.471" y2="500.543" gradientUnits="userSpaceOnUse" spreadMethod="reflect" id="fill5"><stop offset="0" stop-color="#D882FA"/><stop offset="0.14" stop-color="#D882FA"/><stop offset="0.78" stop-color="#529DF8"/><stop offset="1" stop-color="#529DF8"/></linearGradient><linearGradient x1="487.215" y1="214.215" x2="552.785" y2="327.785" gradientUnits="userSpaceOnUse" spreadMethod="reflect" id="fill6"><stop offset="0" stop-color="#84CEFC"/><stop offset="0.9" stop-color="#125BEC"/><stop offset="1" stop-color="#125BEC"/></linearGradient><linearGradient x1="727.215" y1="214.215" x2="792.785" y2="327.785" gradientUnits="userSpaceOnUse" spreadMethod="reflect" id="fill7"><stop offset="0" stop-color="#FD9DFF"/><stop offset="0.9" stop-color="#A357D7"/><stop offset="1" stop-color="#A357D7"/></linearGradient></defs><g transform="translate(-389 -109)"><rect x="389" y="109" width="502" height="502" fill="url(#fill1)"/><path d="M592 250C592 223.49 613.49 202 640 202 666.51 202 688 223.49 688 250 688 276.51 666.51 298 640 298 613.49 298 592 276.51 592 250Z" fill="url(#fill2)" fill-rule="evenodd"/><path d="M65.1258 0C48.4849 0 31.8439 6.34835 19.1473 19.0449 9.6248 28.5674 3.67331 40.3086 1.29267 52.6044L0.384913 62.0753 0 62.0753 0 181.739 65.8577 181.739 65.8577 181.84 130.047 181.84 130.047 66.0923 130.149 65.0235 130.047 63.9546 130.047 62.0753 129.867 62.0753 128.959 52.6044C126.578 40.3086 120.627 28.5674 111.104 19.045 98.4078 6.34835 81.7668 6.86241e-05 65.1258 0Z" fill="url(#fill3)" fill-rule="evenodd" transform="matrix(-0.707107 -0.707107 -0.707107 0.707107 814.595 408.509)"/><path d="M65.1258 0C48.4849 0 31.8439 6.34835 19.1473 19.0449 9.6248 28.5674 3.67331 40.3086 1.29267 52.6044L0.384913 62.0753 0 62.0753 0 181.739 65.8577 181.739 65.8577 181.84 130.047 181.84 130.047 66.0923 130.149 65.0235 130.047 63.9546 130.047 62.0753 129.867 62.0753 128.959 52.6044C126.578 40.3086 120.627 28.5674 111.104 19.045 98.4078 6.34835 81.7668 6.86241e-05 65.1258 0Z" fill="url(#fill4)" fill-rule="evenodd" transform="matrix(-0.707107 0.707107 0.707107 0.707107 557.434 316.48)"/><g filter="url(#fx0)" transform="matrix(2 0 0 2 530 279)"><g><path d="M55 18C75.4345 18 92 34.6678 92 55.2286 92 62.9389 89.6705 70.1017 85.681 76.0435L81.3673 81.304 81.4497 81.3869 55 108 28.5503 81.3869 28.6327 81.304 24.319 76.0435C20.3295 70.1017 18 62.9389 18 55.2286 18 34.6678 34.5655 18 55 18Z" fill="#FF0000" fill-rule="evenodd"/></g></g><path d="M640 311C680.869 311 714 344.336 714 385.457 714 400.878 709.341 415.203 701.362 427.087L692.735 437.608 692.899 437.774 640 491 587.101 437.774 587.265 437.608 578.638 427.087C570.659 415.203 566 400.878 566 385.457 566 344.336 599.131 311 640 311Z" fill="url(#fill5)" fill-rule="evenodd"/><path d="M472 271C472 244.49 493.49 223 520 223 546.51 223 568 244.49 568 271 568 297.51 546.51 319 520 319 493.49 319 472 297.51 472 271Z" fill="url(#fill6)" fill-rule="evenodd"/><path d="M712 271C712 244.49 733.49 223 760 223 786.51 223 808 244.49 808 271 808 297.51 786.51 319 760 319 733.49 319 712 297.51 712 271Z" fill="url(#fill7)" fill-rule="evenodd"/></g></svg>